<?xml version="1.0" encoding="UTF-8" standalone="no"?>
<svg
   xmlns:dc="http://purl.org/dc/elements/1.1/"
   xmlns:cc="http://creativecommons.org/ns#"
   xmlns:rdf="http://www.w3.org/1999/02/22-rdf-syntax-ns#"
   xmlns:svg="http://www.w3.org/2000/svg"
   xmlns="http://www.w3.org/2000/svg"
   xmlns:sodipodi="http://sodipodi.sourceforge.net/DTD/sodipodi-0.dtd"
   xmlns:inkscape="http://www.inkscape.org/namespaces/inkscape"
   inkscape:version="1.0rc1 (09960d6, 2020-04-09)"
   sodipodi:docname="viral.svg"
   xml:space="preserve"
   viewBox="0 0 64 64"
   version="1.1"
   style="enable-background:new 0 0 64 64;"
   id="_x31_-outline-expand"><metadata
     id="metadata848"><rdf:RDF><cc:Work
         rdf:about=""><dc:format>image/svg+xml</dc:format><dc:type
           rdf:resource="http://purl.org/dc/dcmitype/StillImage" /><dc:title></dc:title></cc:Work></rdf:RDF></metadata><defs
     id="defs846" /><sodipodi:namedview
     inkscape:current-layer="_x31_-outline-expand"
     inkscape:window-maximized="0"
     inkscape:window-y="0"
     inkscape:window-x="0"
     inkscape:cy="35.16701"
     inkscape:cx="22.762887"
     inkscape:zoom="7.578125"
     showgrid="false"
     id="namedview844"
     inkscape:window-height="800"
     inkscape:window-width="1280"
     inkscape:pageshadow="2"
     inkscape:pageopacity="0"
     guidetolerance="10"
     gridtolerance="10"
     objecttolerance="10"
     borderopacity="1"
     bordercolor="#666666"
     pagecolor="#ffffff" /><path
     inkscape:connector-curvature="0"
     id="path835"
     style="fill:#3a4249"
     d="m 40.701196,31.373237 1.732,-1 -2,-3.464 -1.732,1 0.5,0.866 -1.805,1.042 c -0.899,-1.085 -2.174,-1.842 -3.623,-2.086 v -2.09 h 1 v -2 h -4 v 2 h 1 v 2.09 c -1.449,0.244 -2.724,1.001 -3.623,2.086 l -1.805,-1.042 0.5,-0.866 -1.732,-1 -2,3.464 1.732,1 0.5,-0.866 1.81,1.045 c -0.243,0.652 -0.382,1.353 -0.382,2.089 0,0.736 0.139,1.437 0.381,2.089 l -1.81,1.045 -0.5,-0.866 -1.732,1 2,3.464 1.732,-1 -0.5,-0.866 1.805,-1.042 c 0.9,1.085 2.175,1.842 3.624,2.086 v 2.09 h -1 v 2 h 4 v -2 h -1 v -2.09 c 1.449,-0.244 2.724,-1.001 3.623,-2.086 l 1.805,1.042 -0.5,0.866 1.732,1 2,-3.464 -1.732,-1 -0.5,0.866 -1.81,-1.045 c 0.243,-0.652 0.382,-1.353 0.382,-2.089 0,-0.736 -0.139,-1.437 -0.381,-2.089 l 1.81,-1.045 z m -7.928,6.268 c -2.209,0 -4,-1.791 -4,-4 0,-2.209 1.791,-4 4,-4 2.209,0 4,1.791 4,4 0,2.209 -1.791,4 -4,4 z" /></svg>
